This contains all of the files used by 6.001, including the textbook, MIT Scheme, and video lectures.

MIT/GNU Scheme (Windows 32-bit, MacOS X 32-bit, and MacOS X 64-bit) 
http://groups.csail.mit.edu/mac/projects/scheme/

Structure and Interpretation of Computer Programs 
http://mitpress.mit.edu/sicp/

Video Lectures 
http://groups.csail.mit.edu/mac/classes/6.001/abelson-sussman-lectures/

   General
      Complete name : \\MIT OCW 6.001 SICP\\Video Lectures\\Lecture-1a.avi
      Format : AVI
      Format/Info : Audio Video Interleave
      File size : 482 MiB
      Duration : 1h 12mn
      Overall bit rate : 924 Kbps
      Writing library : AVI plugin release
   Video #0
      ID : 0
      Format : MPEG-4 Visual
      Codec ID : DIV3
      Codec ID/Hint : DivX 3 Low
      Duration : 1h 12mn
      Bit rate : 853 Kbps
      Width : 320 pixels
      Height : 240 pixels
      Display aspect ratio : 4:3
      Frame rate : 29.970 fps
      Resolution : 24 bits
      Bits/(Pixel*Frame) : 0.371
      Stream size : 445 MiB (92%)
   Audio #1
      ID : 1
      Format : MPEG Audio
      Format version : Version 1
      Format profile : Layer 3
      Codec ID : 55
      Codec ID/Hint : MP3
      Duration : 1h 12mn
      Bit rate mode : Constant
      Bit rate : 64.0 Kbps
      Channel(s) : 1 channel
      Sampling rate : 48.0 KHz
      Resolution : 16 bits
      Stream size : 33.4 MiB (7%)
      Alignment : Split accross interleaves
      Interleave, duration : 200 ms (6.00 video frames)